<?xml version="1.0" encoding="utf-8"?>
<!-- Generator: Adobe Illustrator 24.3.0, SVG Export Plug-In . SVG Version: 6.00 Build 0)  -->
<svg version="1.1" id="Layer_1" xmlns="http://www.w3.org/2000/svg" xmlns:xlink="http://www.w3.org/1999/xlink" x="0px" y="0px"
	 viewBox="0 0 1024 1024" style="enable-background:new 0 0 1024 1024;" xml:space="preserve">
<style type="text/css">
	.st0{fill:#FFFFFF;}
</style>
<path class="st0" d="M190.7,0v657.3H848V0H190.7z M330.2,69.7c19.5-0.7,56.3-0.1,75.9-0.1c18.7,0,37.4-0.7,56.1,0.2
	c33.8,1.6,56.9,26.1,57.2,59.5c0.3,33.1-22.9,59.2-56.3,60.2c-39,1.2-95.4,1.1-134.5,0c-34.3-0.9-56.6-25.3-56.7-59.3
	C271.7,95,294.6,70.9,330.2,69.7z M361.9,575.2c-18.4,10.3-40.9,11.4-59.5,1.5c-11.5-6.1-19.5-15.1-25.2-27.4
	c-11.3-24.5-6-46.9,11.9-66c47.2-50.3,94.8-100.3,142.4-150.3c75.2-78.9,150.7-157.5,225.9-236.4c28.1-29.5,64.3-33.3,90.6-8.9
	c26.2,24.3,25.8,61.3-2.4,91C624.3,306.5,502.9,434.4,380.6,561.4C375.2,567.1,368.5,571.5,361.9,575.2z M709.7,587.5
	c-19.5,0.9-56.4,0.2-75.9,0.1c-19.6,0-39.2,0.8-58.7-0.2c-31.9-1.7-55.3-26.6-56.2-58.3c-0.9-32.1,20.4-59.5,52.5-61.3
	c41.5-2.3,100.6-2.2,142.2-0.2c31.9,1.5,54.2,28.9,53.8,60.4C767,560.4,742.8,586,709.7,587.5z"/>
<g>
	<path class="st0" d="M298.3,742.2c0-4.6-2.6-8.2-7-9.7c-1.7-0.6-4.5-1.2-12.2-1.2h-87.8v20.4h79.4l-76,126.6
		c-4.9,8.1-5.8,11.5-5.8,14.2c0,3.4,1.6,11.2,16,11.2h91.4v-20.4H216l77.6-129C297.5,747.3,298.3,744.5,298.3,742.2z"/>
	<path class="st0" d="M389.5,733.3c-1.9-3.1-5.1-5-8.8-5.1l-0.8-2.4l-0.8,2.4c-3.6,0.3-6.5,2-8.3,4.9c-0.8,1.3-1.9,3.7-4.7,12.4
		l-50.4,158.1h21.7l12.5-38.8h62.7l12.9,38.8h21.9l-52.6-156.8C391.6,737.3,390.4,734.7,389.5,733.3z M356.4,844.4l23.9-75.5
		l25.3,75.5H356.4z"/>
	<polygon class="st0" points="583.9,731.2 556.8,731.2 499.8,796.9 499.8,731.2 478.8,731.2 478.8,903.6 499.8,903.6 499.8,834.9 
		558.1,903.6 585.1,903.6 510.8,815.7 	"/>
	<path class="st0" d="M611.8,735.4c-2.5,2.8-3.5,7.3-3.5,15.7v132.1c0,8.9,0.9,13.4,3.3,16.2c2.6,3.1,7,4.3,15.3,4.3H693v-20.4
		h-63.9v-62.8h60.4V800h-60.4v-48.3h64.5v-20.4h-66.7C618.9,731.2,614.5,732.4,611.8,735.4z"/>
	<polygon class="st0" points="810.7,731.2 774.9,804.6 734.8,731.2 711.3,731.2 764.8,828.9 764.8,903.6 785.8,903.6 785.8,828.7 
		833.9,731.2 	"/>
</g>
</svg>
